<svg width="30" height="30" viewBox="0 0 30 30" fill="none" xmlns="http://www.w3.org/2000/svg">
<path d="M15 0.454712C12.1232 0.454712 9.31099 1.30779 6.919 2.90606C4.52701 4.50434 2.66268 6.77603 1.56177 9.43386C0.460862 12.0917 0.172813 15.0163 0.734053 17.8378C1.29529 20.6594 2.68061 23.2511 4.71483 25.2854C6.74905 27.3196 9.3408 28.7049 12.1623 29.2661C14.9839 29.8274 17.9085 29.5393 20.5663 28.4384C23.2242 27.3375 25.4958 25.4732 27.0941 23.0812C28.6924 20.6892 29.5455 17.877 29.5455 15.0002C29.5455 13.09 29.1692 11.1986 28.4383 9.43386C27.7073 7.66913 26.6359 6.06565 25.2852 4.71498C23.9345 3.36431 22.3311 2.2929 20.5663 1.56192C18.8016 0.830941 16.9102 0.454712 15 0.454712V0.454712ZM15 3.3638C15.8765 3.36953 16.7497 3.47197 17.6037 3.66926C17.3508 4.24001 16.9611 4.73961 16.4691 5.1238C16.1491 5.37108 15.8 5.57471 15.4509 5.79289C14.3458 6.33701 13.414 7.17812 12.76 8.22199C12.0436 9.71517 11.7325 11.3706 11.8582 13.022C11.8582 15.0002 11.8582 16.1638 10.4764 17.1965C8.48366 18.7529 5.44366 17.8802 3.55275 17.0947C3.42913 16.4033 3.36586 15.7025 3.36366 15.0002C3.36366 11.914 4.58963 8.95426 6.77187 6.77202C8.95411 4.58977 11.9139 3.3638 15 3.3638V3.3638ZM4.8182 20.5274C5.76865 20.7745 6.74536 20.9064 7.72729 20.9202C9.37034 20.9654 10.9803 20.4527 12.2946 19.4656C14.7818 17.5165 14.7818 15.0147 14.7818 13.0074C14.6715 11.8457 14.8566 10.6749 15.32 9.6038C15.741 9.03059 16.3019 8.57487 16.9491 8.28017C17.4116 8.00992 17.8583 7.71369 18.2873 7.39289C19.1912 6.67889 19.8931 5.74133 20.3237 4.67289C22.3701 5.71996 24.0606 7.34972 25.1818 9.35653C23.1018 9.64744 20.1491 10.3311 19.5673 13.0365C19.436 13.6829 19.3678 14.3406 19.3637 15.0002C19.4107 15.7374 19.2654 16.4742 18.9418 17.1384L18.7964 17.3856C17.8509 18.9565 16.7891 20.7456 18.2291 23.2038C18.4037 23.5093 18.5927 23.8002 18.7818 24.0911C19.169 24.5383 19.43 25.0805 19.5382 25.662C18.1076 26.2926 16.5633 26.6242 15 26.6365C12.9107 26.6261 10.8628 26.0533 9.07126 24.9784C7.27969 23.9035 5.81059 22.366 4.8182 20.5274V20.5274ZM22.1709 24.1929C21.9193 23.6121 21.6125 23.0568 21.2546 22.5347C21.0946 22.302 20.9346 22.0693 20.7891 21.822C20.2218 20.8329 20.4255 20.3674 21.3418 18.9129L21.4873 18.6656C22.0573 17.5777 22.3284 16.358 22.2727 15.1311C22.2713 14.6432 22.3151 14.1563 22.4037 13.6765C22.6364 12.6147 24.8909 12.3238 26.2873 12.222C26.8517 14.4162 26.7582 16.7279 26.0185 18.8694C25.2788 21.0109 23.9256 22.8875 22.1273 24.2656L22.1709 24.1929Z" fill="white"/>
</svg>
